<svg xmlns="http://www.w3.org/2000/svg" viewBox="0 0 800 420" role="img" aria-labelledby="title desc">
  <title id="title">B-Tree 인덱스 탐색</title>
  <desc id="desc">루트와 내부 노드를 거쳐 정렬된 리프에서 키를 찾는 구조</desc>
  <rect width="800" height="420" rx="28" fill="#f6f8fb"/>
  <text x="52" y="58" fill="#172033" font-family="sans-serif" font-size="25" font-weight="700">B-Tree index lookup · key 42</text>
  <g stroke="#aab5c5" stroke-width="3" fill="none"><path d="M400 142L190 220M400 142v78M400 142l210 78M190 278l-92 56M190 278l92 56M400 278l-52 56M400 278l52 56M610 278l-92 56M610 278l92 56"/></g>
  <g font-family="sans-serif" text-anchor="middle" font-size="17" font-weight="700">
    <rect x="318" y="95" width="164" height="58" rx="14" fill="#e8f2ff" stroke="#2678e8" stroke-width="3"/>
    <text x="400" y="131" fill="#1769d2">20 | 50</text>
    <rect x="118" y="218" width="144" height="58" rx="14" fill="#fff" stroke="#aab5c5" stroke-width="2"/>
    <rect x="328" y="218" width="144" height="58" rx="14" fill="#fff4e8" stroke="#e8872f" stroke-width="3"/>
    <rect x="538" y="218" width="144" height="58" rx="14" fill="#fff" stroke="#aab5c5" stroke-width="2"/>
    <text x="190" y="253" fill="#59677a">5 | 12</text><text x="400" y="253" fill="#a95a14">30 | 42</text><text x="610" y="253" fill="#59677a">65 | 80</text>
    <g font-size="14">
      <rect x="50" y="330" width="96" height="48" rx="12" fill="#eafaf2" stroke="#27a66b" stroke-width="2"/><text x="98" y="360" fill="#197849">1 · 5</text>
      <rect x="234" y="330" width="96" height="48" rx="12" fill="#eafaf2" stroke="#27a66b" stroke-width="2"/><text x="282" y="360" fill="#197849">12 · 19</text>
      <rect x="300" y="330" width="96" height="48" rx="12" fill="#eafaf2" stroke="#27a66b" stroke-width="2"/><text x="348" y="360" fill="#197849">20 · 30</text>
      <rect x="404" y="330" width="96" height="48" rx="12" fill="#fff4e8" stroke="#e8872f" stroke-width="3"/><text x="452" y="360" fill="#a95a14">42 ✓</text>
      <rect x="470" y="330" width="96" height="48" rx="12" fill="#eafaf2" stroke="#27a66b" stroke-width="2"/><text x="518" y="360" fill="#197849">50 · 65</text>
      <rect x="654" y="330" width="96" height="48" rx="12" fill="#eafaf2" stroke="#27a66b" stroke-width="2"/><text x="702" y="360" fill="#197849">80 · 99</text>
    </g>
  </g>
</svg>
